<?xml version="1.0" standalone="no"?>
<!DOCTYPE svg PUBLIC "-//W3C//DTD SVG 20010904//EN"
 "http://www.w3.org/TR/2001/REC-SVG-20010904/DTD/svg10.dtd">
<svg version="1.0" xmlns="http://www.w3.org/2000/svg"
 width="996.000000pt" height="996.000000pt" viewBox="0 0 996.000000 996.000000"
 preserveAspectRatio="xMidYMid meet">

<g transform="translate(0.000000,996.000000) scale(0.100000,-0.100000)"
fill="#000000" stroke="none">
<path d="M5074 9356 c-43 -19 -64 -53 -64 -102 0 -56 29 -90 106 -124 72 -33
102 -67 84 -99 -22 -43 -84 -53 -159 -26 l-41 14 0 -34 c0 -19 1 -35 3 -35 2
0 29 -5 61 -11 120 -22 206 26 206 115 0 57 -20 82 -103 122 -99 47 -117 74
-77 114 22 22 81 27 126 10 31 -12 30 -13 39 21 6 24 3 27 -39 38 -58 14 -104
13 -142 -3z"/>
<path d="M5875 9351 c-83 -37 -121 -116 -112 -228 9 -122 74 -186 187 -187 85
0 110 9 110 42 l0 28 -58 -10 c-50 -8 -64 -6 -98 10 -49 24 -74 72 -74 139 1
67 30 129 71 150 32 17 101 17 140 1 11 -5 19 1 27 19 7 14 12 27 12 29 0 8
-91 26 -127 26 -21 0 -56 -9 -78 -19z"/>
<path d="M3800 9150 l0 -210 31 0 31 0 -4 175 c-2 96 -1 171 2 167 3 -4 13
-29 23 -57 9 -27 35 -103 58 -168 41 -117 42 -118 71 -115 30 3 32 7 92 173
l61 170 3 -172 2 -173 30 0 30 0 0 210 0 210 -47 0 -48 0 -59 -166 c-32 -91
-62 -162 -66 -157 -4 4 -31 79 -61 165 l-54 158 -47 0 -48 0 0 -210z"/>
<path d="M4460 9217 c0 -78 4 -158 10 -176 31 -108 185 -144 279 -65 42 35 51
77 51 242 l0 142 -35 0 -35 0 0 -154 c0 -149 -1 -156 -24 -183 -21 -24 -32
-28 -76 -28 -44 0 -55 4 -76 28 -23 27 -24 34 -24 183 l0 154 -35 0 -35 0 0
-143z"/>
<path d="M5480 9150 l0 -210 35 0 35 0 0 210 0 210 -35 0 -35 0 0 -210z"/>
<path d="M3806 8763 c1 -59 4 -68 21 -71 52 -8 92 35 61 66 -8 8 -8 15 2 27
19 23 -5 45 -49 45 l-36 0 1 -67z m71 41 c7 -18 -12 -34 -39 -34 -13 0 -18 8
-18 25 0 20 5 25 25 25 14 0 28 -7 32 -16z m-2 -69 c0 -14 -8 -21 -27 -23 -24
-3 -28 0 -28 23 0 23 4 26 28 23 19 -2 27 -9 27 -23z"/>
<path d="M4052 8778 c-11 -29 -23 -61 -27 -70 -10 -26 9 -22 20 5 6 13 21 23
37 25 23 3 30 -2 38 -24 6 -15 13 -24 16 -22 7 8 -41 131 -53 135 -6 2 -20
-20 -31 -49z m47 -15 c1 -7 -8 -13 -19 -13 -23 0 -23 0 -9 37 10 26 12 27 19
8 5 -11 9 -26 9 -32z"/>
<path d="M4276 8808 c-22 -31 -20 -74 4 -98 22 -22 65 -27 76 -8 5 7 0 9 -14
6 -30 -8 -62 18 -62 51 0 37 19 59 55 64 27 4 27 4 -7 6 -28 1 -41 -4 -52 -21z"/>
<path d="M4490 8766 c0 -36 5 -68 10 -71 6 -4 10 6 10 24 0 44 14 45 45 5 35
-46 44 -37 11 12 l-26 38 27 28 c15 15 22 28 16 28 -6 0 -23 -13 -36 -30 -14
-16 -28 -30 -31 -30 -3 0 -6 14 -6 30 0 17 -4 30 -10 30 -6 0 -10 -28 -10 -64z"/>
<path d="M4735 8814 c-11 -11 -15 -30 -13 -57 4 -49 37 -75 82 -63 24 6 27 11
24 39 -2 24 -8 33 -25 35 -13 2 -23 -1 -23 -7 0 -6 7 -11 15 -11 18 0 20 -36
3 -43 -7 -2 -23 -1 -35 4 -55 20 -30 115 28 107 16 -3 29 -1 29 4 0 15 -68 8
-85 -8z"/>
<path d="M4970 8758 c2 -40 6 -58 8 -40 4 41 24 41 52 1 26 -36 39 -32 15 5
-14 21 -15 29 -5 40 6 8 10 25 8 38 -2 19 -10 24 -43 26 l-40 3 5 -73z m59 48
c9 -11 8 -18 -4 -30 -26 -26 -45 -20 -45 14 0 23 5 30 19 30 10 0 24 -6 30
-14z"/>
<path d="M5199 8814 c-22 -26 -16 -84 10 -105 30 -24 56 -24 81 1 26 26 26 81
2 103 -24 21 -76 22 -93 1z m79 -6 c27 -27 5 -108 -29 -108 -18 0 -49 40 -49
64 0 45 50 72 78 44z"/>
<path d="M5451 8772 c-1 -58 1 -63 24 -74 19 -8 31 -8 50 0 23 11 25 16 24 74
l-2 63 -6 -58 c-6 -51 -19 -77 -41 -77 -22 0 -35 26 -41 77 l-6 58 -2 -63z"/>
<path d="M5700 8758 l4 -73 6 60 5 60 35 -57 c47 -78 60 -75 60 12 0 81 -18
95 -22 18 l-3 -53 -34 53 c-46 72 -57 68 -51 -20z"/>
<path d="M5950 8760 l0 -71 28 5 c15 2 32 5 39 5 41 3 58 84 25 114 -10 10
-35 17 -55 17 l-37 0 0 -70z m71 50 c13 -7 19 -21 19 -43 0 -39 -15 -57 -47
-57 -21 0 -23 4 -23 55 0 59 9 67 51 45z"/>
<path d="M5264 8162 c4 -6 19 -9 34 -6 15 3 46 -2 69 -10 23 -8 45 -11 48 -7
7 13 -16 20 -92 27 -48 5 -64 4 -59 -4z"/>
<path d="M5436 8141 c-3 -4 26 -13 64 -20 86 -14 123 -14 115 -1 -4 6 -10 8
-15 5 -5 -3 -18 -1 -28 4 -25 14 -130 23 -136 12z"/>
<path d="M4598 7853 c6 -2 18 -2 25 0 6 3 1 5 -13 5 -14 0 -19 -2 -12 -5z"/>
<path d="M6620 7720 c8 -5 20 -10 25 -10 6 0 3 5 -5 10 -8 5 -19 10 -25 10 -5
0 -3 -5 5 -10z"/>
<path d="M6711 7673 c6 -10 20 -19 30 -19 26 0 24 3 -11 21 -29 15 -30 15 -19
-2z"/>
<path d="M5860 7636 c0 -2 7 -7 16 -10 8 -3 12 -2 9 4 -6 10 -25 14 -25 6z"/>
<path d="M6880 7561 c0 -10 29 -36 34 -30 1 2 -6 12 -16 22 -10 9 -18 13 -18
8z"/>
<path d="M6950 7510 c0 -12 80 -90 93 -90 18 0 4 20 -33 44 -22 14 -39 31 -37
37 1 6 -4 14 -10 16 -7 3 -13 0 -13 -7z"/>
<path d="M6425 7450 c3 -5 8 -10 11 -10 2 0 4 5 4 10 0 6 -5 10 -11 10 -5 0
-7 -4 -4 -10z"/>
<path d="M4570 7405 c-14 -8 -20 -14 -14 -15 5 0 19 7 30 15 24 18 16 19 -16
0z"/>
<path d="M5407 7405 c22 -9 31 -19 27 -28 -5 -15 -48 -10 -108 13 -50 19 -41
9 18 -21 33 -16 72 -29 88 -29 18 0 28 -5 28 -15 0 -10 -10 -15 -32 -15 -40 0
-71 -16 -48 -24 8 -2 31 -9 50 -16 19 -6 87 -22 151 -35 65 -13 137 -32 160
-43 24 -11 60 -22 79 -26 19 -3 51 -16 70 -28 49 -30 129 -68 146 -68 8 0 14
-5 14 -11 0 -6 -7 -9 -15 -5 -9 3 -15 0 -15 -10 0 -11 8 -14 28 -12 21 2 27
-1 27 -16 0 -13 19 -31 55 -53 57 -34 73 -53 46 -53 -29 0 -17 -17 26 -36 50
-22 356 -292 475 -417 44 -47 103 -119 130 -159 80 -119 145 -207 196 -266 26
-30 47 -63 47 -73 0 -10 5 -21 10 -24 15 -9 52 -85 48 -97 -3 -7 -10 3 -17 20
-8 18 -17 32 -22 32 -5 0 -9 7 -9 15 0 8 -6 12 -14 9 -8 -3 -12 -12 -9 -20 3
-8 0 -14 -6 -14 -6 0 -17 21 -24 47 -8 26 -17 42 -21 35 -4 -6 0 -25 9 -43 26
-49 11 -44 -24 8 -17 26 -31 44 -31 38 1 -5 7 -19 15 -29 32 -42 13 -39 -26 4
-22 25 -36 36 -30 25 5 -11 19 -29 31 -40 12 -11 32 -33 43 -49 18 -25 18 -29
4 -23 -15 6 -15 2 3 -33 20 -39 55 -169 47 -176 -2 -2 -29 49 -60 114 -58 122
-93 185 -115 211 -8 9 -27 39 -45 66 -80 129 -107 163 -223 282 -68 70 -124
131 -124 135 0 4 -5 8 -11 8 -6 0 -37 24 -69 54 -77 71 -168 130 -347 226
-143 77 -226 112 -113 48 119 -67 197 -120 249 -167 35 -32 59 -47 70 -44 9 4
13 3 10 -1 -8 -9 39 -61 55 -61 17 0 70 -44 63 -52 -4 -3 0 -15 10 -25 9 -10
14 -20 12 -22 -2 -2 -53 38 -114 90 -60 52 -118 94 -128 94 -10 0 -16 4 -12
10 3 5 -8 16 -26 25 -17 9 -28 12 -25 6 12 -19 -1 -12 -58 28 -111 77 -540
261 -610 261 -12 0 -28 6 -35 13 -11 10 -13 10 -7 0 9 -15 -5 -16 -59 -3 -22
5 -80 11 -130 14 -49 2 -72 1 -51 -3 52 -8 57 -26 7 -29 -21 -2 -47 -4 -57 -7
-11 -2 -33 -7 -51 -10 -25 -6 -33 -3 -42 13 -6 10 -7 22 -4 26 3 3 -2 6 -12 6
-10 0 -16 -3 -12 -6 3 -3 -6 -17 -20 -30 -27 -25 -38 -31 -28 -14 3 6 1 10 -4
10 -6 0 -11 -3 -11 -8 0 -4 -46 -16 -102 -26 -57 -10 -114 -25 -128 -34 -14
-9 -29 -17 -35 -19 -89 -21 -125 -32 -150 -46 -16 -9 -24 -16 -17 -17 7 0 22
5 33 10 15 8 19 7 19 -4 0 -8 -6 -17 -12 -19 -7 -3 -2 -6 11 -6 23 -1 24 -2 6
-21 -18 -20 -51 -29 -40 -10 3 6 -1 7 -9 4 -9 -3 -16 -10 -16 -15 0 -5 -16
-15 -35 -23 -19 -8 -35 -20 -35 -25 0 -6 -11 -13 -25 -17 -25 -6 -29 -17 -25
-61 1 -16 -6 -26 -22 -32 -13 -5 -35 -20 -50 -33 -14 -13 -35 -28 -45 -35 -16
-11 -16 -12 0 -7 9 4 17 1 17 -5 0 -6 7 -8 15 -4 9 3 15 2 14 -3 -4 -21 2 -24
17 -10 8 9 20 16 26 16 18 0 -31 -47 -63 -60 -16 -7 -29 -17 -29 -22 0 -6 11
-3 25 6 31 20 33 10 3 -15 -30 -27 -17 -33 28 -14 53 22 73 28 112 29 17 1 32
6 32 11 0 6 19 11 43 12 l42 1 -30 -14 c-16 -7 -23 -13 -15 -14 9 0 26 7 39
17 42 29 223 55 236 34 3 -6 10 -9 15 -6 4 3 34 6 67 6 32 1 68 6 81 10 16 6
41 4 76 -6 29 -9 60 -13 70 -9 12 5 15 2 10 -10 -4 -12 0 -16 15 -16 12 0 21
-4 21 -9 0 -8 39 -20 85 -27 75 -10 111 -18 120 -25 12 -9 151 -41 178 -41 9
1 17 -6 17 -14 0 -8 5 -14 11 -14 14 0 143 -62 200 -97 151 -91 369 -309 369
-368 0 -8 6 -15 14 -15 8 0 18 -5 22 -12 5 -7 2 -9 -9 -5 -13 5 -12 0 5 -29
31 -53 4 -40 -49 23 -26 32 -79 91 -118 131 -186 197 -458 339 -738 388 -127
22 -398 15 -513 -15 -239 -60 -447 -169 -603 -317 -38 -35 -72 -64 -77 -64 -5
0 -15 9 -22 20 -11 18 -8 23 35 50 46 29 40 40 -11 21 -18 -7 -28 -6 -36 4 -7
9 -29 13 -58 13 -26 -1 -61 5 -77 13 -28 14 -30 18 -27 59 2 25 8 50 12 56 11
12 2 54 -11 54 -5 0 -9 11 -9 25 0 23 -4 25 -40 25 -22 0 -40 4 -40 9 0 4 14
25 30 46 17 21 30 41 30 45 0 11 -43 30 -75 33 -30 2 -30 1 -31 -48 -2 -74 -2
-75 -26 -75 -13 0 -36 -9 -53 -19 -39 -24 -113 -91 -101 -91 5 0 2 -8 -7 -17
-8 -10 -15 -29 -15 -43 0 -14 -14 -58 -31 -99 -17 -41 -29 -76 -27 -79 3 -2
-6 -26 -20 -53 -13 -27 -33 -84 -44 -126 -57 -230 -71 -261 -113 -254 -5 1
-23 -5 -40 -12 -74 -32 -89 -37 -99 -31 -6 4 -8 -1 -3 -16 6 -19 4 -21 -14
-15 -14 4 -23 1 -27 -9 -12 -32 -21 -15 -14 27 7 47 56 121 73 110 5 -3 16 2
23 12 8 10 31 28 51 40 36 20 38 23 38 70 0 28 -4 55 -10 61 -5 6 -16 21 -24
32 -8 12 -18 19 -23 16 -4 -3 -8 0 -8 5 0 18 -21 12 -52 -14 -57 -48 -48 1 13
71 21 25 39 49 39 55 0 5 6 8 13 7 9 -2 12 23 13 97 1 55 6 125 12 155 5 30 7
59 2 63 -4 5 -38 10 -75 11 -60 2 -69 5 -76 24 -11 30 -22 28 -37 -8 -7 -16
-28 -38 -46 -50 -40 -24 -42 -24 -50 -5 -4 11 3 19 19 25 14 5 25 14 25 20 0
11 -33 -5 -57 -27 -9 -8 -10 -12 -1 -15 6 -2 -5 -12 -25 -21 -20 -10 -41 -27
-47 -37 -7 -13 -21 -20 -38 -19 -24 0 -25 1 -7 9 13 6 15 9 5 9 -8 0 -46 -35
-85 -79 -38 -43 -71 -77 -73 -75 -2 1 8 31 22 65 20 49 23 67 15 82 -10 19
-13 17 -40 -28 -15 -27 -35 -65 -43 -84 -43 -104 -55 -139 -61 -180 -4 -25
-16 -72 -27 -105 -11 -35 -17 -73 -13 -90 3 -17 -2 -76 -10 -130 -20 -135 -19
-211 2 -102 24 126 30 102 23 -100 0 -13 0 -29 0 -35 1 -7 -2 -32 -6 -55 -4
-28 -3 -43 4 -43 6 0 13 6 15 13 4 9 8 8 17 -3 10 -14 9 -41 -4 -148 -4 -31
-16 -41 -16 -12 0 18 -3 20 -14 11 -10 -9 -16 -9 -21 -1 -4 6 -13 9 -21 6 -8
-3 -15 0 -15 7 -1 7 -5 -4 -8 -23 -4 -19 -4 -39 1 -44 10 -13 10 -46 0 -46 -5
0 -7 -13 -4 -30 3 -18 0 -30 -7 -30 -6 0 -11 9 -11 20 0 31 -22 71 -38 68 -19
-4 -23 -28 -27 -158 -1 -58 -1 -93 2 -78 4 28 32 46 43 27 4 -6 11 -9 16 -7 5
1 15 -31 23 -72 9 -41 18 -77 22 -80 3 -3 9 -36 13 -75 4 -38 9 -86 11 -105 3
-19 2 -30 -1 -23 -3 7 -11 10 -17 7 -13 -4 -57 30 -57 44 0 10 -37 9 -66 -1
-31 -11 -40 -104 -19 -187 25 -96 103 -309 124 -339 20 -28 71 -137 71 -152 0
-17 -17 -9 -29 15 -8 13 -25 26 -40 29 -21 5 -35 23 -73 99 -45 90 -78 178
-78 207 0 8 -10 25 -21 37 -12 13 -21 35 -21 51 1 26 -4 46 -24 98 -4 11 -6
26 -5 32 1 7 -5 26 -14 43 -9 17 -13 35 -10 41 4 5 2 15 -3 22 -6 7 -13 41
-16 77 -6 76 -23 140 -36 140 -6 0 -9 10 -9 23 1 25 -19 248 -28 317 -4 25 -8
37 -10 27 -9 -38 -23 -2 -23 58 0 36 -5 67 -11 71 -8 5 -9 -40 -5 -160 4 -111
3 -166 -4 -166 -6 0 -10 -15 -9 -32 2 -55 10 -88 20 -82 5 3 9 -2 9 -10 0 -9
-5 -16 -11 -16 -9 0 -10 -19 -4 -67 4 -38 9 -81 10 -98 1 -16 11 -70 21 -120
9 -49 17 -103 16 -119 -1 -16 7 -40 18 -54 12 -15 20 -40 20 -63 0 -20 7 -44
15 -52 7 -8 17 -26 21 -41 3 -14 10 -26 15 -26 5 0 9 -8 10 -17 1 -12 4 -9 8
7 l7 25 15 -30 c8 -16 22 -40 29 -52 8 -12 11 -26 7 -30 -5 -4 -12 -1 -17 7
-9 13 -10 13 -11 0 0 -10 -3 -8 -9 5 -5 11 -9 14 -9 6 -1 -10 -4 -11 -15 -2
-11 9 -16 9 -22 0 -4 -7 0 -17 8 -23 12 -9 23 -66 13 -66 -11 0 -70 134 -85
193 -10 40 -30 113 -43 162 -25 92 -42 184 -53 288 -3 31 -10 55 -14 52 -13
-8 -23 40 -17 80 3 18 3 36 -1 39 -12 13 -15 43 -13 146 1 58 -1 114 -6 126
-8 21 -8 21 -31 -3 -12 -12 -18 -23 -12 -23 5 0 10 -7 10 -16 0 -10 -6 -14
-14 -11 -10 4 -18 -2 -22 -16 -11 -31 -11 -227 0 -227 4 0 6 -14 4 -32 -3 -20
0 -38 9 -47 11 -10 13 -26 9 -54 -4 -25 -2 -45 6 -54 9 -12 9 -16 -3 -24 -10
-6 -11 -11 -3 -16 6 -5 15 -38 18 -75 5 -40 13 -68 20 -71 8 -3 17 -27 21 -54
7 -51 65 -231 95 -298 16 -38 32 -77 31 -82 0 -2 6 -18 14 -38 9 -19 15 -38
14 -42 -3 -19 3 -31 31 -61 16 -18 30 -42 30 -52 0 -18 55 -129 89 -179 10
-14 40 -61 65 -104 26 -42 76 -114 112 -159 35 -45 64 -85 64 -90 0 -14 52
-79 58 -73 6 6 42 -24 42 -36 0 -8 37 -50 95 -109 20 -19 35 -43 35 -52 0 -10
4 -18 9 -18 5 0 45 -34 89 -75 44 -41 84 -75 90 -75 6 0 19 -12 30 -27 11 -16
47 -48 80 -72 35 -25 63 -53 66 -67 4 -13 25 -35 47 -49 45 -29 59 -53 38 -66
-11 -7 -11 -9 -1 -9 7 0 42 -20 76 -45 35 -25 78 -48 95 -51 17 -4 31 -10 31
-15 0 -5 7 -9 15 -9 8 0 20 -9 27 -20 15 -24 30 -27 21 -5 -4 13 4 11 41 -7
48 -23 62 -40 25 -31 -16 4 -20 2 -17 -8 3 -8 9 -14 14 -14 5 0 23 -10 39 -21
17 -12 45 -29 63 -38 33 -17 33 -17 23 3 -16 30 -13 33 9 11 11 -11 20 -24 20
-30 0 -5 6 -10 14 -10 7 0 19 -7 26 -15 10 -12 16 -13 27 -4 10 9 17 9 25 1 9
-9 7 -12 -7 -12 -19 0 -19 0 1 -14 11 -8 31 -16 44 -17 14 -2 31 -10 38 -16 7
-7 25 -16 40 -19 15 -3 36 -9 47 -14 49 -21 239 -71 270 -71 10 0 58 -8 105
-19 47 -10 88 -16 93 -11 4 4 -26 13 -67 19 -70 12 -135 41 -94 42 9 0 19 -4
22 -9 5 -7 75 -18 186 -27 25 -2 67 -8 93 -14 26 -5 64 -10 83 -10 23 0 34 -4
32 -12 -5 -14 -82 -13 -172 3 -32 6 -61 8 -64 5 -3 -3 4 -6 16 -6 11 0 24 -4
27 -10 3 -5 42 -10 85 -10 48 0 82 -4 86 -11 5 -8 10 -6 16 5 5 9 16 16 23 16
8 0 15 4 15 9 0 12 49 20 56 10 3 -5 16 -9 30 -9 13 0 24 -4 24 -10 0 -6 -26
-10 -59 -10 -33 0 -63 -4 -66 -10 -4 -6 1 -7 10 -3 10 3 21 0 25 -7 12 -19
120 -26 132 -9 8 11 8 9 4 -5 -5 -15 -3 -17 16 -12 25 8 40 10 210 27 85 9
119 16 123 27 4 10 9 11 18 4 7 -6 37 -10 67 -10 44 1 50 3 32 11 -30 14 -28
25 3 19 14 -2 25 -8 25 -13 0 -14 55 -10 86 6 16 8 43 15 59 15 23 0 27 3 15
10 -13 9 -13 11 0 20 16 10 18 11 100 15 30 2 78 5 106 8 66 7 290 80 377 124
37 18 72 31 77 28 6 -4 10 1 10 9 0 9 5 16 11 16 6 0 24 9 40 21 16 11 33 18
37 15 5 -3 18 2 28 10 10 9 13 13 7 9 -7 -3 -13 -2 -13 4 0 10 93 61 113 61
15 0 -1 -15 -38 -35 -29 -16 -29 -17 -3 -11 14 3 34 9 44 13 38 14 2 -17 -41
-36 -25 -11 -45 -25 -45 -31 0 -7 -5 -10 -12 -8 -6 2 -56 -20 -112 -49 -55
-29 -105 -53 -111 -53 -6 0 -20 -6 -31 -14 -11 -8 -71 -31 -132 -51 -62 -20
-131 -44 -154 -55 l-41 -18 41 1 c23 1 42 5 42 9 0 5 3 7 8 6 4 -1 18 3 32 9
14 6 79 30 145 53 340 120 710 326 895 500 14 14 49 38 77 55 32 18 49 35 45
43 -3 8 1 12 9 10 8 -2 27 7 43 20 16 12 25 22 20 23 -5 0 2 5 16 11 14 6 28
11 31 10 3 -1 12 9 18 22 7 12 26 30 42 40 16 9 29 24 29 32 0 8 11 19 23 23
25 10 83 114 78 140 -1 7 2 10 8 7 5 -4 12 3 16 14 9 30 55 81 67 74 5 -3 8 1
6 9 -2 8 5 24 15 34 25 26 86 119 97 148 5 14 15 25 21 25 7 0 10 3 6 6 -3 4
10 26 30 50 19 24 31 44 27 44 -5 0 -4 4 1 8 14 10 45 71 45 88 0 8 8 22 18
32 10 10 29 40 41 66 13 26 25 45 27 43 5 -4 -13 -64 -26 -88 -5 -9 -16 -33
-24 -53 l-15 -37 28 20 c35 25 54 48 48 58 -2 4 5 17 16 27 20 19 20 19 13 0
-4 -11 6 -5 25 16 18 19 33 44 35 56 1 11 13 43 26 70 25 48 40 95 42 124 1 8
6 15 13 15 6 0 15 3 19 7 4 5 3 8 -3 8 -6 0 -9 9 -6 20 3 11 0 26 -6 34 -8 10
-9 16 -1 21 5 3 10 19 10 35 0 18 9 35 23 47 25 20 48 51 29 39 -13 -8 -10
144 3 179 l8 20 -16 -20 c-16 -20 -16 -20 -17 1 0 27 20 84 30 84 4 0 10 17
14 38 3 21 12 52 20 68 9 16 23 77 31 134 18 117 34 360 23 360 -3 0 -5 35 -3
78 2 42 1 71 -2 65 -10 -26 -20 -12 -33 45 -28 128 -58 399 -33 302 6 -22 7
-22 13 -5 4 11 5 -16 4 -60 -2 -43 1 -85 6 -94 7 -11 8 -6 4 17 -6 27 -4 31
10 26 11 -4 16 -19 16 -51 0 -27 -4 -42 -10 -38 -6 4 -10 -7 -9 -27 1 -31 2
-31 9 -8 l7 25 8 -28 c4 -15 5 -36 2 -47 -3 -11 -1 -18 4 -14 5 3 9 15 9 27 0
12 4 28 9 36 22 34 27 -402 6 -554 -8 -60 -14 -128 -14 -150 l1 -40 9 50 c5
28 14 75 19 106 55 305 21 1008 -54 1124 -8 11 -17 53 -21 93 -4 39 -10 72
-14 72 -9 0 -31 82 -31 115 0 13 -4 26 -8 29 -5 3 -19 37 -32 75 -13 39 -28
71 -33 71 -5 0 -7 -7 -3 -15 3 -8 1 -15 -5 -15 -5 0 -14 10 -19 23 -5 13 -9
16 -9 7 -1 -9 4 -21 11 -28 15 -15 19 -42 7 -42 -9 0 -4 -20 13 -57 6 -12 15
-20 20 -17 4 3 8 -7 8 -21 0 -15 4 -24 10 -20 6 3 10 -1 10 -9 0 -9 -4 -16
-10 -16 -20 0 -9 -43 15 -62 25 -19 35 -68 15 -68 -5 0 -10 10 -10 23 0 12 -5
29 -10 37 -16 25 -12 -14 6 -60 13 -33 14 -43 4 -55 -11 -13 -10 -14 1 -10 10
4 18 -8 26 -42 6 -27 7 -49 3 -51 -4 -1 -1 -21 7 -44 11 -31 11 -43 2 -48 -6
-4 -8 -13 -5 -19 4 -6 4 -32 0 -58 -6 -40 -8 -44 -15 -25 -5 12 -10 43 -12 69
-3 27 -10 61 -16 76 -6 16 -11 44 -11 63 0 19 -4 34 -9 34 -10 0 -32 70 -50
165 -6 33 -21 87 -33 120 -11 33 -27 80 -36 105 -9 25 -24 63 -33 85 -9 22
-20 55 -24 74 -5 21 -10 29 -15 21 -9 -14 -21 10 -26 55 -3 16 -19 44 -36 62
-18 18 -29 33 -25 33 12 0 -18 53 -116 208 -49 78 -94 142 -99 142 -4 0 -8 6
-8 14 0 8 -20 38 -45 67 -25 29 -44 60 -43 68 2 9 -2 16 -9 16 -7 0 -39 32
-72 70 -81 94 -83 96 -122 130 -19 17 -55 53 -80 80 -25 28 -58 56 -75 63 -26
11 -25 8 14 -27 27 -25 38 -41 30 -44 -8 -4 6 -23 40 -54 29 -26 52 -52 52
-57 0 -5 17 -25 38 -45 83 -82 272 -320 272 -344 0 -5 19 -31 43 -57 23 -26
50 -63 60 -81 l19 -34 -32 35 c-29 32 -31 32 -15 6 10 -16 27 -45 38 -65 12
-20 24 -38 27 -41 12 -10 70 -107 70 -116 0 -6 16 -36 35 -68 19 -32 34 -61
33 -64 -1 -4 1 -14 4 -22 41 -112 44 -125 26 -114 -7 4 -8 3 -4 -5 4 -6 11 -9
15 -6 4 2 14 -14 21 -35 7 -22 20 -40 28 -40 10 0 13 -7 9 -21 -3 -12 5 -56
18 -98 13 -42 33 -112 44 -156 10 -44 24 -93 30 -109 9 -22 9 -31 0 -37 -6 -4
-9 -12 -5 -18 26 -42 85 -621 63 -621 -4 0 -2 -8 4 -18 9 -14 8 -25 -5 -50
-14 -27 -14 -31 -1 -26 19 8 19 -6 0 -42 -11 -20 -14 -43 -10 -74 4 -31 1 -62
-11 -95 -9 -28 -18 -70 -20 -95 -7 -96 -16 -150 -25 -155 -5 -4 -9 -26 -9 -50
0 -24 -4 -46 -9 -49 -4 -3 -11 -41 -15 -85 -7 -91 -18 -131 -30 -112 -4 7 -5
24 -1 39 4 15 8 50 10 77 2 28 11 72 19 99 9 30 12 54 6 60 -5 7 -4 32 1 61 6
28 12 98 14 157 4 97 3 107 -14 113 -16 5 -17 14 -14 83 7 117 21 156 22 60 1
-49 5 -78 12 -78 7 0 8 -12 4 -32 -5 -25 -4 -30 4 -22 8 8 14 105 17 320 3
169 6 311 6 314 2 19 -4 30 -16 30 -15 0 -26 50 -26 127 0 34 -5 57 -16 68 -9
8 -17 30 -19 48 -4 40 -23 91 -24 64 -1 -10 -5 -15 -11 -12 -5 3 -10 -1 -10
-10 0 -9 -4 -13 -10 -10 -5 3 -10 15 -10 25 0 11 -11 36 -25 56 -26 39 -25 63
2 29 12 -15 14 -16 10 -3 -3 9 -3 18 1 20 4 2 4 19 1 38 -5 30 -7 31 -8 8 -1
-32 -19 -46 -27 -21 -3 10 -10 26 -15 35 -5 10 -9 27 -9 38 0 11 -5 20 -11 20
-6 0 -9 7 -5 15 3 8 -1 21 -9 29 -8 8 -15 24 -15 35 0 11 -4 22 -9 25 -11 7
-51 88 -51 103 0 6 -6 24 -14 40 -8 15 -20 46 -26 68 -7 22 -26 55 -41 73 -26
29 -34 50 -30 75 1 6 -8 9 -26 6 -13 -2 -53 77 -51 101 2 19 -1 24 -15 22 -11
-2 -22 7 -30 25 -6 15 -24 40 -39 57 -15 16 -25 33 -22 38 3 4 0 8 -6 8 -6 0
-14 8 -17 18 -4 9 -27 42 -51 72 -50 63 -69 83 -56 60 18 -32 -80 58 -294 270
-123 121 -238 228 -255 236 -18 9 -46 30 -64 46 -17 17 -36 27 -43 23 -13 -8
-42 13 -34 26 2 5 -8 11 -23 15 -15 4 -35 13 -43 20 -8 7 -55 31 -104 53 -85
40 -98 36 -41 -10 55 -45 69 -61 53 -55 -30 9 -20 -3 20 -23 35 -18 83 -61 68
-61 -5 0 -22 10 -39 21 -26 18 -24 14 11 -21 24 -23 41 -44 39 -46 -6 -6 -78
26 -94 42 -8 8 -23 14 -33 14 -10 0 -22 5 -25 10 -4 6 -10 8 -15 5 -5 -3 -15
2 -24 10 -16 17 -106 37 -106 25 0 -4 53 -38 118 -74 103 -59 150 -89 240
-152 13 -9 21 -18 18 -22 -3 -3 -14 2 -24 11 -10 10 -22 17 -26 17 -4 0 -45
25 -91 55 -150 100 -309 163 -633 250 -120 32 -182 44 -205 40 -18 -4 -46 -1
-62 5 -17 7 -48 14 -70 16 l-40 3 32 -14z m-842 -635 c-3 -5 -11 -10 -16 -10
-6 0 -7 5 -4 10 3 6 11 10 16 10 6 0 7 -4 4 -10z m-190 -190 c-3 -5 -11 -10
-16 -10 -6 0 -7 5 -4 10 3 6 11 10 16 10 6 0 7 -4 4 -10z m1925 -50 c0 -5 -2
-10 -4 -10 -3 0 -8 5 -11 10 -3 6 -1 10 4 10 6 0 11 -4 11 -10z m-1137 -127
c-7 -2 -19 -2 -25 0 -7 3 -2 5 12 5 14 0 19 -2 13 -5z m1308 -40 c14 -16 32
-37 40 -48 14 -19 13 -19 -10 -4 -29 18 -78 79 -64 79 5 0 20 -12 34 -27z
m172 -194 c38 -39 47 -55 25 -44 -7 4 4 -8 25 -26 21 -17 47 -50 58 -73 11
-22 13 -32 5 -21 -41 56 -44 54 -11 -5 94 -170 124 -238 110 -244 -12 -4 -12
-9 1 -35 9 -17 22 -31 30 -31 19 0 18 -10 -3 -27 -17 -13 -17 -13 2 -11 13 2
20 -4 22 -17 3 -19 3 -19 -5 -1 -5 12 -11 15 -15 9 -4 -6 0 -16 8 -23 8 -7 15
-9 15 -4 0 5 5 2 10 -6 13 -20 13 1 0 35 -5 14 -6 24 -1 21 5 -4 11 0 14 6 3
7 10 0 16 -17 6 -16 15 -39 20 -50 28 -65 60 -170 65 -215 1 -8 8 -25 14 -37
7 -12 12 -33 12 -48 0 -14 7 -40 16 -57 13 -25 15 -48 10 -102 -3 -39 -2 -84
3 -101 l9 -30 1 29 c1 29 1 29 19 10 21 -22 37 -84 22 -84 -6 0 -10 14 -10 32
0 20 -4 28 -9 23 -6 -6 -6 -37 -1 -78 9 -77 -5 -159 -21 -122 -7 14 -8 8 -5
-22 4 -44 -2 -57 -20 -45 -22 15 -34 94 -35 232 -2 213 -3 250 -10 250 -4 0
-9 29 -11 64 -3 34 -18 94 -33 131 -15 37 -25 80 -23 95 3 17 -1 27 -9 27 -16
0 -16 2 2 -72 17 -72 17 -75 6 -75 -5 0 -12 16 -15 35 -4 19 -11 35 -16 35 -4
0 -6 10 -3 21 4 14 0 25 -11 31 -9 5 -16 14 -16 21 0 7 4 6 10 -3 8 -12 10
-10 10 8 0 16 -7 26 -20 29 -11 3 -20 13 -20 23 0 10 -7 26 -17 35 -13 13 -14
18 -3 25 10 6 8 10 -7 18 -11 6 -30 38 -42 71 -12 33 -26 63 -31 66 -17 10
-12 48 5 42 11 -5 9 4 -7 34 -11 23 -27 43 -35 46 -7 3 -28 35 -45 72 -17 36
-44 85 -59 108 -16 23 -29 44 -29 48 0 4 -18 28 -40 54 -22 26 -40 51 -40 57
1 5 18 -11 38 -35 20 -24 54 -61 75 -82z m-4021 -281 c-7 -7 -12 -8 -12 -2 0
14 12 26 19 19 2 -3 -1 -11 -7 -17z m4260 -96 c6 -24 17 -46 24 -49 8 -3 14
-9 14 -14 0 -6 -9 -5 -21 2 -19 10 -20 9 -14 -13 l7 -23 -17 24 c-13 17 -15
25 -6 31 9 5 4 25 -18 76 -30 67 -30 68 -6 39 14 -16 31 -50 37 -73z m-2970
63 c11 -14 27 -25 36 -25 12 0 10 -6 -10 -27 -28 -30 -122 -174 -153 -236 -19
-36 -21 -37 -62 -31 -27 4 -59 0 -92 -11 -30 -10 -76 -16 -113 -14 -35 1 -80
-2 -100 -6 -46 -9 -48 0 -8 50 17 21 30 42 30 48 0 10 30 36 43 37 4 0 7 -8 7
-17 0 -13 10 -7 38 20 21 20 41 37 45 37 10 0 66 57 101 103 16 20 40 40 55
43 14 4 41 15 59 26 18 11 38 18 46 15 7 -3 19 -1 27 4 22 13 30 11 51 -16z
m88 21 c0 -3 -4 -8 -10 -11 -5 -3 -10 -1 -10 4 0 6 5 11 10 11 6 0 10 -2 10
-4z m2134 -202 c11 -28 6 -39 -9 -20 -8 11 -15 23 -15 28 0 14 18 9 24 -8z
m-3004 -44 c0 -5 -5 -10 -11 -10 -5 0 -7 5 -4 10 3 6 8 10 11 10 2 0 4 -4 4
-10z m3040 -31 c0 -6 -4 -7 -10 -4 -5 3 -10 11 -10 16 0 6 5 7 10 4 6 -3 10
-11 10 -16z m897 -91 c-3 -8 -6 -5 -6 6 -1 11 2 17 5 13 3 -3 4 -12 1 -19z
m783 -14 c0 -8 -4 -13 -9 -10 -5 4 -7 -4 -3 -16 3 -14 2 -19 -6 -14 -18 11
-15 56 3 56 8 0 15 -7 15 -16z m-2916 -16 c3 5 17 10 30 10 18 0 24 -6 23 -19
-1 -19 -17 -27 -17 -9 0 6 -5 10 -11 10 -5 0 -7 -4 -4 -10 4 -6 -5 -10 -19
-10 -18 0 -26 6 -27 18 -1 11 -4 9 -9 -8 -7 -21 -8 -22 -10 -5 -1 19 -2 19 -9
1 -7 -18 -8 -18 -14 -2 -8 20 31 39 50 24 7 -5 13 -5 17 0z m122 -13 c-1 -26
-10 -32 -21 -15 -4 6 -1 17 5 25 17 20 18 19 16 -10z m52 -3 c2 -7 -2 -10 -12
-6 -9 3 -16 1 -16 -6 0 -6 5 -8 10 -5 6 3 10 1 10 -4 0 -6 -4 -11 -9 -11 -15
0 -23 19 -17 36 7 17 27 15 34 -4z m-250 -15 c2 -10 -3 -17 -12 -17 -9 0 -16
5 -16 11 0 5 6 7 13 3 7 -5 6 0 -3 11 -13 16 -13 18 0 13 8 -2 16 -12 18 -21z
m263 -4 c-12 -20 -14 -14 -5 12 4 9 9 14 11 11 3 -2 0 -13 -6 -23z m-317 -23
c9 -13 8 -13 -4 -3 -13 10 -18 8 -28 -8 -12 -18 -14 -18 -29 -4 -20 21 -9 32
14 14 15 -12 16 -12 10 4 -4 11 -3 16 3 12 6 -3 10 2 11 12 0 14 2 15 6 3 3
-8 11 -22 17 -30z m342 14 c-4 -9 -9 -15 -11 -12 -3 3 -3 13 1 22 4 9 9 15 11
12 3 -3 3 -13 -1 -22z m33 9 c-3 -20 2 -24 16 -13 12 10 16 9 21 -4 4 -10 12
-15 18 -13 7 3 19 0 28 -7 14 -10 14 -14 1 -31 -15 -20 -15 -19 -10 3 4 15 1
22 -10 22 -10 0 -13 -6 -9 -16 3 -8 2 -12 -4 -9 -6 3 -10 13 -10 21 0 8 -5 14
-11 14 -5 0 -7 -4 -4 -10 8 -14 2 -13 -31 5 -16 8 -24 15 -17 15 7 0 10 7 7
15 -4 8 -1 15 5 15 6 0 10 -3 10 -7z m2880 -41 c0 -30 -2 -33 -9 -17 -12 28
-12 67 0 60 6 -3 10 -23 9 -43z m-3353 -12 c-1 -24 -102 -124 -116 -115 -5 3
-10 18 -10 32 0 20 3 23 13 15 10 -8 16 -4 26 19 7 16 16 27 21 24 4 -3 13 2
20 10 7 8 16 13 20 10 4 -3 10 2 14 10 8 21 13 19 12 -5z m2282 -24 c7 -19 12
-52 11 -73 -1 -21 2 -50 6 -65 4 -17 3 -28 -3 -28 -13 0 -22 35 -22 93 0 31
-5 49 -14 53 -16 6 -18 54 -2 54 7 0 18 -15 24 -34z m1052 -4 c0 -21 -2 -24
-10 -12 -13 20 -13 53 0 45 6 -3 10 -18 10 -33z m-170 -4 c0 -5 -4 -8 -10 -8
-5 0 -10 10 -10 23 0 18 2 19 10 7 5 -8 10 -18 10 -22z m-2559 9 c15 -11 15
-15 2 -32 -13 -17 -15 -17 -10 -2 4 9 2 17 -4 17 -6 0 -7 5 -3 12 4 7 3 8 -5
4 -6 -4 -9 -12 -6 -17 4 -5 1 -9 -4 -9 -12 0 -15 23 -4 33 9 10 15 8 34 -6z
m-2771 -12 c0 -8 -4 -15 -10 -15 -5 0 -10 7 -10 15 0 8 5 15 10 15 6 0 10 -7
10 -15z m2802 -27 c-17 -17 -15 -33 3 -18 13 11 14 10 9 -4 -5 -12 -2 -15 12
-10 15 5 16 4 5 -4 -27 -19 -67 19 -44 41 3 4 11 7 17 7 6 0 5 -5 -2 -12z
m2728 -14 c0 -8 -4 -12 -10 -9 -5 3 -10 13 -10 21 0 8 5 12 10 9 6 -3 10 -13
10 -21z m5 -73 c-4 -17 -11 -31 -17 -31 -6 0 -7 7 -4 16 3 9 6 27 6 42 0 19 3
23 11 15 7 -7 8 -24 4 -42z m-3499 7 c5 -8 2 -9 -11 -4 -16 6 -16 4 -4 -11 12
-15 12 -16 -3 -10 -10 3 -18 2 -18 -3 0 -6 6 -10 13 -11 9 0 9 -2 -1 -6 -6 -2
-10 -8 -7 -13 3 -4 -2 -21 -10 -36 -8 -16 -15 -25 -15 -20 0 5 -2 7 -5 4 -3
-3 -1 -17 4 -31 8 -20 7 -27 -5 -31 -24 -9 -41 -6 -19 4 17 7 17 9 3 9 -19 1
-25 26 -8 36 5 3 7 12 3 20 -4 11 -1 13 13 8 13 -5 16 -3 11 10 -4 12 -2 14
11 10 15 -6 15 -5 3 10 -11 14 -11 17 0 17 11 0 11 2 2 8 -10 6 -9 13 3 30 17
25 29 28 40 10z m824 1 c0 8 3 12 6 9 3 -4 4 -9 2 -12 -1 -3 7 -13 20 -22 22
-15 22 -17 5 -30 -17 -13 -17 -14 2 -8 16 6 18 4 8 -6 -10 -11 -16 -10 -33 5
-16 15 -18 21 -7 33 10 13 9 14 -2 8 -15 -9 -33 12 -24 27 3 5 9 3 14 -4 7
-12 9 -12 9 0z m2687 -61 c-3 -7 -5 -2 -5 12 0 14 2 19 5 13 2 -7 2 -19 0 -25z
m-1071 -28 c0 -11 -4 -20 -8 -20 -4 0 -8 2 -8 4 0 2 -3 11 -6 20 -4 10 -1 16
8 16 7 0 14 -9 14 -20z m-1550 -19 c2 -32 -14 -36 -35 -9 -18 21 -18 24 -3 30
25 10 37 4 38 -21z m2439 -25 c-8 -41 -25 -48 -25 -10 0 14 4 23 10 19 6 -3
10 4 10 16 0 12 3 20 6 17 3 -3 2 -22 -1 -42z m-885 -31 c0 -25 -4 -45 -9 -45
-5 0 -9 13 -9 29 1 15 -2 33 -6 39 -5 8 1 15 22 21 1 1 2 -19 2 -44z m-1540
15 c0 -5 -4 -10 -10 -10 -5 0 -10 5 -10 10 0 6 5 10 10 10 6 0 10 -4 10 -10z
m10 -39 c0 -4 -9 -7 -20 -7 -13 0 -19 5 -16 13 3 7 1 13 -4 13 -6 0 -10 5 -10
10 0 6 11 3 25 -6 14 -9 25 -19 25 -23z m2427 -43 c-2 -13 -4 -5 -4 17 -1 22
1 32 4 23 2 -10 2 -28 0 -40z m-27 16 c0 -8 -5 -12 -10 -9 -6 4 -8 11 -5 16 9
14 15 11 15 -7z m-3405 -4 l-20 -9 20 -1 c20 -1 20 -2 0 -9 -19 -8 -19 -8 0
-19 11 -6 14 -12 8 -12 -7 0 -13 -5 -13 -11 0 -5 5 -7 11 -3 7 4 10 1 7 -7 -3
-8 -11 -14 -18 -14 -10 0 -15 15 -17 48 -3 43 -1 47 19 46 22 0 22 -1 3 -9z
m540 -15 c14 -13 25 -33 25 -45 0 -28 -43 -70 -71 -70 -32 0 -69 38 -69 71 0
31 40 69 72 69 10 0 30 -11 43 -25z m462 19 c-3 -3 -12 -4 -19 -1 -8 3 -5 6 6
6 11 1 17 -2 13 -5z m10 -53 c0 -36 -2 -39 -26 -37 -36 4 -38 30 -4 45 26 13
27 14 8 22 -20 7 -19 8 1 8 18 1 21 -5 21 -38z m1532 2 c0 -25 -1 -26 -9 -8
-12 27 -12 35 0 35 6 0 10 -12 9 -27z m871 -25 c0 -49 -5 -47 -14 5 -4 23 -3
37 4 37 5 0 10 -19 10 -42z m-5813 -50 c-3 -7 -5 -2 -5 12 0 14 2 19 5 13 2
-7 2 -19 0 -25z m2402 11 c-14 -8 -29 -3 -29 11 0 4 9 6 21 3 15 -4 17 -8 8
-14z m999 -24 c-3 -14 -1 -25 6 -25 6 0 4 -5 -4 -10 -8 -5 -22 -9 -30 -9 -12
0 -12 2 -1 6 11 5 11 7 0 14 -10 6 -11 9 -1 9 6 0 12 5 12 11 0 5 -4 7 -10 4
-11 -7 -14 8 -3 18 17 17 35 6 31 -18z m-983 -6 c0 -8 4 -20 9 -28 9 -15 -9
-31 -34 -30 -8 0 -5 4 8 9 29 12 28 18 -4 30 -22 9 -24 13 -14 25 15 18 35 15
35 -6z m975 -58 c0 -5 -9 -7 -20 -4 -11 3 -20 7 -20 9 0 2 9 4 20 4 11 0 20
-4 20 -9z m1591 -118 c-9 -16 -10 -14 -11 12 0 21 3 26 11 18 8 -8 8 -16 0
-30z m29 -37 c0 -3 -4 -8 -10 -11 -5 -3 -10 -1 -10 4 0 6 5 11 10 11 6 0 10
-2 10 -4z m790 -173 c0 -5 -5 -15 -10 -23 -8 -12 -10 -11 -10 8 0 12 5 22 10
22 6 0 10 -3 10 -7z m-20 -63 c0 -5 -4 -10 -10 -10 -5 0 -10 5 -10 10 0 6 5
10 10 10 6 0 10 -4 10 -10z m0 -191 c0 -11 -4 -18 -10 -14 -5 3 -7 12 -3 20 7
21 13 19 13 -6z m-10 -48 c0 -6 -4 -13 -10 -16 -5 -3 -10 1 -10 9 0 9 5 16 10
16 6 0 10 -4 10 -9z m-5352 -31 c12 -12 22 -27 22 -34 0 -7 9 -21 20 -31 11
-10 20 -14 20 -9 0 12 56 -95 65 -126 7 -23 7 -24 -10 -10 -17 14 -18 14 -5
-10 9 -16 9 -25 2 -28 -15 -5 -3 -32 14 -32 12 0 12 -4 2 -21 -11 -17 -10 -22
5 -34 10 -7 20 -24 22 -37 2 -13 6 -34 10 -48 6 -24 6 -24 -9 -6 -9 11 -16 30
-16 43 0 13 -6 23 -12 23 -16 1 -142 265 -134 279 4 5 1 13 -5 16 -5 4 -8 13
-5 20 3 8 -2 19 -10 25 -15 13 -19 40 -6 40 5 0 18 -9 30 -20z m-338 -66 c0
-8 -4 -12 -10 -9 -5 3 -10 10 -10 16 0 5 5 9 10 9 6 0 10 -7 10 -16z m5683
-154 c-8 -31 -23 -34 -23 -6 0 16 6 26 14 26 9 0 12 -7 9 -20z m87 -5 c-7 -8
-17 -15 -23 -15 -5 0 -2 9 8 20 21 23 35 19 15 -5z m-130 -45 c-6 -11 -12 -20
-14 -20 -2 0 -2 9 1 20 3 11 9 20 15 20 5 0 4 -9 -2 -20z m101 -12 c-4 -13 -6
-28 -4 -35 2 -6 0 -14 -6 -17 -5 -4 -8 7 -7 26 4 46 5 48 16 48 6 0 6 -9 1
-22z m-5667 -4 c4 -10 1 -14 -6 -12 -15 5 -23 28 -10 28 5 0 13 -7 16 -16z
m-17 -56 c-3 -8 -6 -5 -6 6 -1 11 2 17 5 13 3 -3 4 -12 1 -19z m38 3 c4 -12
12 -18 21 -14 10 4 25 -19 55 -82 41 -89 47 -128 9 -58 -15 27 -19 31 -15 13
l6 -25 -16 22 c-26 35 -85 163 -75 163 5 0 11 -9 15 -19z m-14 -71 c5 0 24
-31 43 -68 19 -38 55 -98 80 -135 25 -37 48 -78 52 -92 3 -14 10 -23 14 -20 7
4 16 -14 25 -52 2 -7 13 -25 26 -40 12 -16 19 -20 16 -10 -10 27 2 20 23 -15
24 -40 25 -48 4 -48 -16 0 -16 -7 1 -55 5 -16 1 -14 -19 8 -25 27 -97 144
-100 162 -1 6 -23 44 -48 85 -26 41 -63 111 -83 155 -19 44 -42 93 -50 108 -8
16 -15 36 -14 45 0 13 3 11 11 -5 6 -13 15 -23 19 -23z m5556 18 c-3 -8 -6 -5
-6 6 -1 11 2 17 5 13 3 -3 4 -12 1 -19z m-5237 -83 c26 -38 29 -49 19 -61 -9
-12 -9 -13 2 -10 14 5 69 -69 73 -98 1 -7 14 -24 28 -37 36 -32 171 -230 162
-238 -8 -8 -56 49 -115 138 -27 40 -49 68 -49 62 0 -7 -5 -9 -10 -6 -6 4 -8
15 -5 26 4 12 2 19 -7 19 -17 0 -41 38 -32 52 4 6 3 8 -4 5 -6 -4 -30 24 -56
65 -34 52 -43 74 -34 79 10 7 10 11 0 21 -12 12 -16 28 -7 28 2 0 18 -20 35
-45z m5306 -11 c-4 -9 -9 -15 -11 -12 -3 3 -3 13 1 22 4 9 9 15 11 12 3 -3 3
-13 -1 -22z m-97 -18 c-12 -26 -29 -35 -29 -16 0 11 32 51 37 46 2 -2 -2 -15
-8 -30z m-33 -90 c-8 -20 -20 -36 -25 -36 -16 0 -14 8 10 47 27 43 35 37 15
-11z m-5306 -29 c17 -31 26 -57 22 -57 -11 0 -62 92 -62 111 0 18 5 10 40 -54z
m5390 6 c0 -21 -8 -33 -30 -45 -33 -19 -42 -6 -10 14 11 7 20 20 20 29 0 14 8
29 17 29 2 0 3 -12 3 -27z m-5283 -55 c59 -66 100 -148 73 -148 -5 0 -10 4
-10 9 0 6 -22 40 -50 76 -27 36 -50 70 -50 76 0 16 16 10 37 -13z m-52 -38 c3
-5 2 -10 -4 -10 -5 0 -13 5 -16 10 -3 6 -2 10 4 10 5 0 13 -4 16 -10z m29 -90
c-7 -7 -44 39 -44 54 1 6 12 -2 25 -19 13 -16 22 -32 19 -35z m5208 38 c-6 -6
-15 -8 -19 -4 -4 4 -1 11 7 16 8 5 17 7 19 4 3 -2 -1 -10 -7 -16z m-5150 -108
c21 -30 24 -40 12 -44 -14 -5 -25 10 -44 58 -14 38 1 31 32 -14z m73 30 c3 -5
2 -10 -4 -10 -5 0 -13 5 -16 10 -3 6 -2 10 4 10 5 0 13 -4 16 -10z m-30 -110
c10 -11 20 -18 24 -16 9 5 31 -21 24 -28 -3 -3 20 -34 51 -68 31 -35 76 -84
99 -110 23 -26 52 -52 65 -59 12 -7 21 -17 19 -23 -2 -6 6 -15 17 -21 11 -6
22 -19 24 -29 3 -14 0 -16 -11 -10 -33 19 -161 151 -219 226 -34 43 -70 83
-80 89 -10 5 -18 16 -18 24 0 8 -9 15 -20 15 -20 0 -26 11 -13 23 10 11 19 8
38 -13z m35 -86 c0 -8 -4 -12 -10 -9 -5 3 -10 10 -10 16 0 5 5 9 10 9 6 0 10
-7 10 -16z m150 1 c7 -9 8 -15 2 -15 -5 0 -12 7 -16 15 -3 8 -4 15 -2 15 2 0
9 -7 16 -15z m4615 -62 c-21 -40 -63 -88 -70 -82 -5 6 72 109 81 109 3 0 -2
-12 -11 -27z m-4550 -63 c10 -11 14 -20 9 -20 -5 0 -15 9 -22 20 -7 11 -11 20
-9 20 2 0 12 -9 22 -20z m4423 -22 c-2 -6 -10 -14 -16 -16 -7 -2 -10 2 -6 12
7 18 28 22 22 4z m52 -22 c0 -8 -20 -33 -44 -56 -25 -24 -42 -48 -40 -54 6
-16 -26 -43 -48 -43 -20 0 -24 12 -8 22 6 3 10 1 10 -6 0 -8 4 -8 15 1 8 7 15
19 15 27 0 12 87 123 97 123 2 0 3 -6 3 -14z m-100 -19 c0 -2 -10 -12 -22 -23
l-23 -19 19 23 c18 21 26 27 26 19z m20 -142 c-7 -8 -18 -15 -24 -15 -6 0 -2
7 8 15 25 19 32 19 16 0z m-4004 -342 c-6 -6 -36 9 -36 18 0 5 9 4 20 -3 10
-7 18 -14 16 -15z m-95 0 c13 -15 12 -15 -8 -4 -24 12 -29 21 -14 21 5 0 15
-7 22 -17z m3539 -8 c-7 -9 -15 -13 -17 -11 -7 7 7 26 19 26 6 0 6 -6 -2 -15z
m-3314 -50 c15 -11 16 -14 3 -15 -8 0 -24 7 -35 15 -15 11 -16 14 -3 15 8 0
24 -7 35 -15z m19 -55 c3 -5 2 -10 -4 -10 -5 0 -13 5 -16 10 -3 6 -2 10 4 10
5 0 13 -4 16 -10z m45 -10 c8 -5 11 -12 7 -16 -4 -4 -15 0 -24 9 -18 18 -8 23
17 7z m-110 -20 c0 -5 -2 -10 -4 -10 -3 0 -8 5 -11 10 -3 6 -1 10 4 10 6 0 11
-4 11 -10z m3180 -60 c-24 -15 -37 -11 -16 5 11 8 22 12 25 9 3 -3 -1 -9 -9
-14z m-572 -58 c4 -13 -45 -28 -56 -17 -8 8 28 37 42 32 5 -2 11 -8 14 -15z
m-2324 -63 c-3 -5 -10 -7 -15 -3 -5 3 -7 10 -3 15 3 5 10 7 15 3 5 -3 7 -10 3
-15z m2111 1 c-3 -5 -11 -10 -16 -10 -6 0 -7 5 -4 10 3 6 11 10 16 10 6 0 7
-4 4 -10z m62 4 c-3 -3 -12 -4 -19 -1 -8 3 -5 6 6 6 11 1 17 -2 13 -5z m-1704
-143 c6 -6 24 -11 39 -11 15 0 28 -4 28 -10 0 -14 -27 -13 -53 2 -12 7 -43 12
-69 13 -26 0 -52 5 -58 11 -8 8 4 11 45 9 31 -2 62 -8 68 -14z m1397 10 c0 -5
-23 -14 -50 -20 -65 -14 -73 -14 -68 2 4 10 29 16 106 25 6 1 12 -2 12 -7z
m-157 -28 c-7 -2 -19 -2 -25 0 -7 3 -2 5 12 5 14 0 19 -2 13 -5z m-1198 -33
c8 -13 -15 -13 -35 0 -12 8 -11 10 7 10 12 0 25 -4 28 -10z m84 -16 c2 -2 2
-7 -2 -10 -8 -9 -67 6 -67 17 0 8 59 2 69 -7z m1051 -63 c0 -12 -30 -22 -43
-14 -7 4 -3 9 9 14 26 10 34 10 34 0z"/>
<path d="M6804 5820 c3 -19 11 -39 16 -44 5 -5 5 8 -1 30 -14 50 -24 60 -15
14z"/>
<path d="M7090 4964 c0 -14 4 -23 9 -20 5 3 7 15 4 26 -7 28 -13 25 -13 -6z"/>
<path d="M4661 5366 c-8 -10 -9 -16 -1 -21 5 -3 13 1 16 10 9 22 -1 29 -15 11z"/>
<path d="M4634 5342 c3 -5 1 -12 -6 -14 -8 -3 -9 -6 -1 -11 6 -4 13 0 17 8 3
8 0 17 -6 21 -6 4 -8 3 -4 -4z"/>
<path d="M4603 5303 c-15 -5 -17 -23 -4 -23 5 0 11 7 15 15 3 8 4 15 3 14 -1
0 -8 -3 -14 -6z"/>
<path d="M4490 5110 c0 -5 5 -10 11 -10 5 0 7 5 4 10 -3 6 -8 10 -11 10 -2 0
-4 -4 -4 -10z"/>
<path d="M5410 5210 c0 -5 5 -10 10 -10 6 0 10 5 10 10 0 6 -4 10 -10 10 -5 0
-10 -4 -10 -10z"/>
<path d="M5435 5150 c-3 -5 -1 -10 4 -10 6 0 11 5 11 10 0 6 -2 10 -4 10 -3 0
-8 -4 -11 -10z"/>
<path d="M5456 4972 c-2 -4 4 -8 14 -8 10 0 16 4 14 8 -3 4 -9 8 -14 8 -5 0
-11 -4 -14 -8z"/>
<path d="M4480 4890 c0 -5 5 -10 11 -10 5 0 7 5 4 10 -3 6 -8 10 -11 10 -2 0
-4 -4 -4 -10z"/>
<path d="M2280 3799 c0 -6 9 -22 20 -36 24 -31 25 -27 4 15 -16 33 -24 40 -24
21z"/>
<path d="M7131 7268 c27 -28 48 -53 46 -55 -2 -2 19 -27 47 -56 94 -97 221
-240 238 -269 10 -15 23 -28 29 -28 6 0 1 12 -10 26 -21 27 -28 64 -13 64 11
0 42 -34 42 -46 0 -5 14 -25 31 -44 l31 -35 -20 40 c-11 22 -23 48 -26 58 -3
11 -14 21 -24 24 -9 2 -33 25 -52 51 -44 57 -78 92 -91 92 -5 0 -9 8 -7 17 2
10 -2 18 -9 18 -6 0 -15 3 -19 8 -4 4 -18 7 -31 7 -12 0 -23 3 -23 8 0 4 -14
15 -30 24 -23 13 -30 24 -30 47 0 31 -15 50 -23 29 -3 -8 -21 3 -49 30 -62 59
-67 53 -7 -10z m249 -233 c11 -13 10 -14 -4 -9 -9 3 -16 10 -16 15 0 13 6 11
20 -6z"/>
<path d="M6735 7240 c3 -5 8 -10 11 -10 2 0 4 5 4 10 0 6 -5 10 -11 10 -5 0
-7 -4 -4 -10z"/>
<path d="M6790 7204 c0 -22 77 -97 100 -98 14 -1 24 -7 23 -14 -3 -13 58 -64
81 -68 26 -4 19 5 -29 35 -24 15 -42 31 -39 34 3 3 -14 18 -38 33 -23 15 -55
41 -70 57 -16 16 -28 25 -28 21z"/>
<path d="M5860 7120 c0 -5 5 -10 10 -10 6 0 10 5 10 10 0 6 -4 10 -10 10 -5 0
-10 -4 -10 -10z"/>
<path d="M3620 7110 c-8 -5 -10 -10 -5 -10 6 0 17 5 25 10 8 5 11 10 5 10 -5
0 -17 -5 -25 -10z"/>
<path d="M4478 7063 c7 -3 16 -2 19 1 4 3 -2 6 -13 5 -11 0 -14 -3 -6 -6z"/>
<path d="M5948 7043 c6 -2 18 -2 25 0 6 3 1 5 -13 5 -14 0 -19 -2 -12 -5z"/>
<path d="M4370 7019 c0 -5 5 -7 10 -4 6 3 10 8 10 11 0 2 -4 4 -10 4 -5 0 -10
-5 -10 -11z"/>
<path d="M4865 7020 c-52 -5 -28 -7 90 -7 93 -1 150 2 135 7 -29 9 -125 9
-225 0z"/>
<path d="M5300 7010 c0 -6 -8 -10 -17 -11 -24 -1 119 -36 182 -44 44 -7 93
-22 160 -50 11 -5 25 -9 30 -10 38 -5 102 -29 111 -41 7 -8 26 -16 43 -19 17
-2 36 -6 43 -10 7 -4 4 1 -7 10 -27 23 -115 62 -170 76 -25 6 -45 16 -45 21 0
5 -5 6 -10 3 -6 -4 -16 -2 -23 3 -21 17 -123 42 -178 43 -31 1 -68 10 -86 20
-18 10 -33 14 -33 9z"/>
<path d="M6017 7009 c7 -7 15 -10 18 -7 3 3 -2 9 -12 12 -14 6 -15 5 -6 -5z"/>
<path d="M4743 7003 c9 -2 25 -2 35 0 9 3 1 5 -18 5 -19 0 -27 -2 -17 -5z"/>
<path d="M5198 7003 c12 -2 30 -2 40 0 9 3 -1 5 -23 4 -22 0 -30 -2 -17 -4z"/>
<path d="M7030 6980 c0 -11 4 -20 9 -20 5 0 7 9 4 20 -3 11 -7 20 -9 20 -2 0
-4 -9 -4 -20z"/>
<path d="M5730 6950 c27 -21 108 -56 115 -49 2 2 -29 19 -68 37 -50 22 -64 26
-47 12z"/>
<path d="M5025 6950 c-7 -12 2 -12 30 0 19 8 19 9 -2 9 -12 1 -25 -3 -28 -9z"/>
<path d="M5880 6880 c19 -13 30 -13 30 0 0 6 -10 10 -22 10 -19 0 -20 -2 -8
-10z"/>
<path d="M4180 6860 c0 -5 5 -10 11 -10 5 0 7 5 4 10 -3 6 -8 10 -11 10 -2 0
-4 -4 -4 -10z"/>
<path d="M7140 6862 c0 -10 22 -32 32 -32 15 0 8 15 -12 28 -11 7 -20 9 -20 4z"/>
<path d="M7194 6785 c1 -8 6 -18 11 -22 4 -4 5 -2 1 5 -4 6 -2 12 4 12 6 0 8
5 5 10 -9 15 -24 12 -21 -5z"/>
<path d="M4260 6710 c-9 -6 -10 -10 -3 -10 6 0 15 5 18 10 8 12 4 12 -15 0z"/>
<path d="M3410 6700 c0 -5 5 -10 10 -10 6 0 10 5 10 10 0 6 -4 10 -10 10 -5 0
-10 -4 -10 -10z"/>
<path d="M7260 6655 c13 -14 26 -25 28 -25 3 0 -5 11 -18 25 -13 14 -26 25
-28 25 -3 0 5 -11 18 -25z"/>
<path d="M7280 6677 c0 -1 14 -16 32 -32 l32 -30 -19 33 c-11 17 -25 32 -32
32 -7 0 -13 -1 -13 -3z"/>
<path d="M1063 6641 c-107 -31 -173 -71 -259 -156 -94 -93 -144 -183 -170
-305 -62 -294 119 -606 403 -693 l72 -22 4 -615 c4 -663 4 -665 62 -865 51
-174 148 -364 257 -504 29 -36 149 -178 268 -316 118 -137 386 -448 595 -690
432 -501 464 -541 533 -673 111 -214 150 -377 159 -669 l6 -202 -26 -10 c-14
-6 -31 -19 -36 -30 -7 -13 -11 -124 -11 -309 0 -365 -14 -337 169 -337 184 0
169 -28 173 323 l3 282 -121 0 c-175 0 -164 21 -164 -308 0 -168 -4 -262 -10
-262 -6 0 -10 98 -10 274 0 347 -13 321 169 321 72 0 131 3 131 6 0 10 -34 36
-56 43 -21 6 -22 13 -27 234 -4 177 -10 248 -26 324 -47 217 -148 443 -270
605 -36 48 -336 400 -665 781 -329 382 -623 726 -653 765 -62 83 -151 258
-187 367 -60 184 -59 173 -63 842 l-4 617 28 7 c248 55 425 228 479 470 64
291 -109 595 -396 695 -90 31 -268 37 -357 10z m231 -131 c123 -20 262 -114
323 -218 81 -137 83 -312 7 -452 -54 -100 -182 -200 -286 -224 -25 -6 -28 -4
-28 19 0 16 7 28 18 31 122 40 233 138 272 241 45 117 35 255 -26 359 -35 59
-115 131 -182 162 -51 24 -69 27 -167 27 -105 0 -114 -2 -177 -33 -202 -99
-284 -346 -182 -548 35 -68 118 -148 189 -180 45 -21 55 -30 55 -50 0 -30 -8
-30 -76 2 -66 31 -165 121 -201 181 -82 141 -83 324 0 465 58 100 200 198 314
218 68 11 81 11 147 0z m74 -135 c33 -15 68 -35 78 -46 15 -17 13 -17 -35 2
-81 30 -190 27 -268 -10 -77 -37 -132 -91 -169 -167 -53 -107 -35 -274 38
-351 12 -13 19 -25 16 -28 -3 -3 -28 19 -56 50 -123 134 -125 332 -5 465 104
115 260 149 401 85z m-143 -986 c0 -175 -2 -204 -15 -204 -13 0 -15 30 -18
195 -3 202 0 224 21 217 9 -3 12 -53 12 -208z m0 -760 c0 -175 -2 -204 -15
-204 -13 0 -15 30 -18 195 -3 202 0 224 21 217 9 -3 12 -53 12 -208z m73 -645
c18 -53 50 -135 72 -181 45 -96 46 -103 24 -103 -27 0 -154 296 -154 359 0 12
6 21 13 21 8 0 26 -39 45 -96z m433 -676 c170 -198 161 -184 145 -197 -11 -9
-38 17 -132 126 -66 76 -125 146 -132 155 -13 16 -9 38 6 38 4 0 55 -55 113
-122z m520 -603 c119 -139 139 -170 111 -170 -16 0 -262 284 -262 303 0 33 37
0 151 -133z m447 -517 c102 -120 173 -218 166 -229 -12 -20 -32 -5 -81 64 -29
39 -84 109 -124 154 -62 73 -77 103 -49 103 4 0 44 -42 88 -92z m351 -625 c27
-97 56 -294 47 -318 -10 -27 -36 1 -36 39 0 48 -30 213 -51 280 -19 61 -18 76
5 76 8 0 22 -31 35 -77z"/>
<path d="M7380 6551 c0 -6 4 -12 8 -15 5 -3 9 1 9 9 0 8 -4 15 -9 15 -4 0 -8
-4 -8 -9z"/>
<path d="M4220 6510 c-9 -6 -10 -10 -3 -10 6 0 15 5 18 10 8 12 4 12 -15 0z"/>
<path d="M7616 6497 c3 -10 9 -15 12 -12 3 3 0 11 -7 18 -10 9 -11 8 -5 -6z"/>
<path d="M6332 6474 c10 -10 20 -16 22 -13 3 3 -5 11 -17 18 -21 13 -21 12 -5
-5z"/>
<path d="M7377 6469 c12 -12 24 -21 27 -18 2 2 -8 13 -22 23 l-27 19 22 -24z"/>
<path d="M7435 6480 c3 -5 8 -10 11 -10 2 0 4 5 4 10 0 6 -5 10 -11 10 -5 0
-7 -4 -4 -10z"/>
<path d="M4124 6454 c-18 -14 -18 -15 4 -4 12 6 22 13 22 15 0 8 -5 6 -26 -11z"/>
<path d="M6610 6446 c0 -2 8 -10 18 -17 15 -13 16 -12 3 4 -13 16 -21 21 -21
13z"/>
<path d="M7460 6356 c0 -9 5 -16 10 -16 6 0 10 4 10 9 0 6 -4 13 -10 16 -5 3
-10 -1 -10 -9z"/>
<path d="M6656 6317 c3 -10 9 -15 12 -12 3 3 0 11 -7 18 -10 9 -11 8 -5 -6z"/>
<path d="M3503 6293 c4 -3 1 -13 -6 -21 -10 -13 -9 -14 11 -3 22 12 22 31 0
31 -6 0 -8 -3 -5 -7z"/>
<path d="M3325 6276 c-16 -7 -39 -24 -50 -36 l-20 -23 31 17 c34 20 82 56 74
55 -3 0 -18 -6 -35 -13z"/>
<path d="M7520 6261 c0 -6 4 -13 10 -16 6 -3 7 1 4 9 -7 18 -14 21 -14 7z"/>
<path d="M7775 6214 c19 -25 35 -53 36 -62 0 -10 3 -12 5 -5 6 14 -20 67 -47
94 -33 33 -30 21 6 -27z"/>
<path d="M6720 6231 c0 -6 4 -13 10 -16 6 -3 7 1 4 9 -7 18 -14 21 -14 7z"/>
<path d="M7550 6190 c0 -5 5 -10 11 -10 5 0 7 5 4 10 -3 6 -8 10 -11 10 -2 0
-4 -4 -4 -10z"/>
<path d="M2731 6114 c0 -11 3 -14 6 -6 3 7 2 16 -1 19 -3 4 -6 -2 -5 -13z"/>
<path d="M7886 6115 c4 -8 8 -15 10 -15 2 0 4 7 4 15 0 8 -4 15 -10 15 -5 0
-7 -7 -4 -15z"/>
<path d="M2135 6107 c-13 -10 -15 -16 -6 -21 6 -4 9 -13 5 -19 -3 -7 2 -3 10
7 14 17 22 46 13 46 -2 0 -11 -6 -22 -13z"/>
<path d="M7620 6115 c0 -5 5 -17 10 -25 5 -8 10 -10 10 -5 0 6 -5 17 -10 25
-5 8 -10 11 -10 5z"/>
<path d="M7710 6074 c0 -10 5 -26 10 -34 7 -11 8 -8 6 13 -3 32 -16 49 -16 21z"/>
<path d="M7980 6074 c0 -3 6 -12 14 -19 8 -8 17 -37 21 -65 7 -49 25 -82 20
-36 -6 51 -33 126 -46 126 -5 0 -9 -3 -9 -6z"/>
<path d="M2116 6035 c-3 -9 -6 -22 -5 -28 0 -7 5 -1 10 12 5 13 8 26 5 28 -2
2 -6 -3 -10 -12z"/>
<path d="M6950 6028 c0 -8 10 -23 22 -34 l21 -19 -18 30 c-26 41 -25 40 -25
23z"/>
<path d="M7000 6010 c6 -11 13 -20 16 -20 2 0 0 9 -6 20 -6 11 -13 20 -16 20
-2 0 0 -9 6 -20z"/>
<path d="M7705 6010 c-3 -5 -1 -10 4 -10 6 0 11 5 11 10 0 6 -2 10 -4 10 -3 0
-8 -4 -11 -10z"/>
<path d="M7663 5965 c0 -22 2 -30 4 -17 2 12 2 30 0 40 -3 9 -5 -1 -4 -23z"/>
<path d="M7027 5963 c-4 -3 -7 -16 -6 -27 0 -19 1 -19 10 3 10 24 8 36 -4 24z"/>
<path d="M7697 5953 c-3 -3 0 -12 8 -19 8 -8 11 -22 8 -31 -4 -11 -3 -14 5 -9
7 4 12 14 12 22 0 18 -25 46 -33 37z"/>
<path d="M8033 5904 c3 -11 15 -49 26 -86 11 -37 24 -75 29 -84 8 -14 10 -13
10 9 0 15 -4 27 -9 27 -5 0 -6 6 -3 13 7 19 -31 130 -46 135 -9 3 -11 -1 -7
-14z"/>
<path d="M3275 5900 c-3 -5 -2 -10 4 -10 5 0 13 5 16 10 3 6 2 10 -4 10 -5 0
-13 -4 -16 -10z"/>
<path d="M7757 5887 c3 -15 9 -30 14 -33 14 -8 10 20 -5 41 -13 18 -14 18 -9
-8z"/>
<path d="M7727 5859 c4 -13 8 -18 11 -10 2 7 -1 18 -6 23 -8 8 -9 4 -5 -13z"/>
<path d="M3218 5809 c-18 -10 -25 -39 -10 -39 13 1 42 27 42 39 0 13 -9 14
-32 0z"/>
<path d="M7757 5779 c4 -13 8 -18 11 -10 2 7 -1 18 -6 23 -8 8 -9 4 -5 -13z"/>
<path d="M2230 5739 c-61 -90 -70 -104 -76 -119 -3 -8 -10 -22 -15 -30 -21
-35 -49 -118 -30 -90 20 28 22 16 22 -127 0 -35 8 -85 19 -115 18 -52 19 -52
19 -18 1 41 14 65 30 56 6 -4 11 -1 11 8 0 8 5 16 11 18 6 2 2 20 -11 48 l-20
45 6 -38 c4 -29 2 -37 -7 -32 -19 13 -4 129 35 256 33 108 52 189 44 189 -2 0
-19 -23 -38 -51z"/>
<path d="M7804 5723 c4 -7 11 -32 16 -55 l9 -43 -3 44 c-3 24 -10 49 -17 55
-9 8 -10 8 -5 -1z"/>
<path d="M2310 5670 c0 -5 5 -10 11 -10 5 0 7 5 4 10 -3 6 -8 10 -11 10 -2 0
-4 -4 -4 -10z"/>
<path d="M7790 5663 c0 -18 20 -66 25 -61 3 3 -1 20 -9 39 -9 19 -15 29 -16
22z"/>
<path d="M2298 5635 c-3 -5 -9 -26 -12 -45 l-7 -35 16 28 c15 26 18 76 3 52z"/>
<path d="M2050 5570 c-6 -23 -9 -44 -7 -46 2 -3 9 14 15 38 6 23 9 44 7 46 -2
2 -9 -15 -15 -38z"/>
<path d="M7991 5584 c0 -11 3 -14 6 -6 3 7 2 16 -1 19 -3 4 -6 -2 -5 -13z"/>
<path d="M2421 5538 c-11 -29 -23 -73 -25 -97 -5 -40 -4 -43 10 -29 9 9 15 33
16 59 0 24 8 61 18 82 10 20 15 37 10 37 -4 0 -17 -24 -29 -52z"/>
<path d="M7866 5517 c3 -10 9 -15 12 -12 3 3 0 11 -7 18 -10 9 -11 8 -5 -6z"/>
<path d="M2087 5460 c-4 -14 -6 -41 -6 -60 1 -21 3 -27 6 -15 3 11 9 25 14 31
4 5 5 23 0 40 l-7 29 -7 -25z"/>
<path d="M2371 5337 c-7 -32 -11 -61 -8 -63 7 -8 29 82 25 102 -3 11 -10 -7
-17 -39z"/>
<path d="M2001 5308 c0 -15 -7 -31 -14 -35 -24 -14 -35 -127 -21 -213 l8 -45
12 60 c7 35 9 61 3 63 -11 4 -1 109 13 138 5 12 8 30 5 40 -3 14 -5 11 -6 -8z"/>
<path d="M2322 5293 c-8 -21 -18 -69 -23 -107 -5 -39 -14 -75 -19 -81 -6 -8
-5 -18 5 -31 14 -18 14 -18 16 6 1 14 1 29 0 34 -3 14 20 118 35 159 16 42 17
57 6 57 -4 0 -13 -17 -20 -37z"/>
<path d="M2441 5233 c1 -57 1 -58 10 -18 11 55 11 75 -1 75 -6 0 -9 -25 -9
-57z"/>
<path d="M2192 5260 c0 -14 2 -19 5 -12 2 6 2 18 0 25 -3 6 -5 1 -5 -13z"/>
<path d="M1634 5195 c3 -22 6 -53 6 -70 0 -21 3 -26 9 -16 5 7 14 10 20 7 6
-4 11 -2 11 4 0 6 -7 13 -15 16 -10 4 -13 14 -9 30 4 15 2 24 -6 24 -6 0 -9 4
-6 8 2 4 0 14 -5 22 -8 11 -9 4 -5 -25z"/>
<path d="M2361 5184 c0 -11 3 -14 6 -6 3 7 2 16 -1 19 -3 4 -6 -2 -5 -13z"/>
<path d="M2411 5139 c0 -15 6 -32 14 -39 13 -10 15 -9 15 9 0 11 -4 21 -9 21
-5 0 -12 8 -14 18 -3 11 -5 8 -6 -9z"/>
<path d="M2087 5093 c-7 -34 2 -85 14 -78 4 3 4 17 -1 30 -7 18 -5 28 5 39 12
12 12 16 1 25 -11 9 -15 5 -19 -16z"/>
<path d="M2411 5074 c0 -11 3 -14 6 -6 3 7 2 16 -1 19 -3 4 -6 -2 -5 -13z"/>
<path d="M2431 5054 c0 -11 3 -14 6 -6 3 7 2 16 -1 19 -3 4 -6 -2 -5 -13z"/>
<path d="M2277 5012 c-4 -24 -12 -40 -17 -37 -6 4 -8 11 -5 16 4 5 1 9 -4 9
-6 0 -11 -10 -12 -22 0 -13 -2 -54 -4 -93 -2 -38 0 -101 5 -140 22 -167 42
-280 51 -294 9 -14 10 -13 5 2 -25 79 -36 477 -15 503 6 7 9 32 7 56 l-3 43
-8 -43z"/>
<path d="M2194 5025 c-3 -8 -3 -18 0 -23 3 -5 -4 -27 -15 -50 -12 -23 -17 -46
-14 -53 4 -6 9 -36 12 -66 2 -31 4 -58 5 -62 0 -3 0 -21 -1 -40 -1 -25 -5 -32
-16 -27 -8 3 -15 1 -15 -3 0 -5 5 -11 10 -13 6 -2 13 -21 16 -43 12 -96 15
-105 30 -105 10 0 14 6 10 18 -16 55 -29 255 -16 247 6 -4 5 5 -1 19 -13 28 2
158 19 164 12 4 3 52 -9 52 -6 0 -12 -7 -15 -15z"/>
<path d="M1699 4948 c0 -2 -2 -96 -5 -211 -4 -172 -2 -212 11 -236 23 -45 78
-53 89 -13 22 82 10 222 -19 222 -26 0 -48 46 -38 77 13 37 -6 163 -24 163 -7
0 -13 -1 -14 -2z"/>
<path d="M2411 4924 c0 -11 3 -14 6 -6 3 7 2 16 -1 19 -3 4 -6 -2 -5 -13z"/>
<path d="M2001 4834 c0 -11 3 -14 6 -6 3 7 2 16 -1 19 -3 4 -6 -2 -5 -13z"/>
<path d="M2010 4717 c0 -20 4 -38 9 -42 6 -3 7 10 4 32 -8 50 -13 55 -13 10z"/>
<path d="M2377 4673 c-4 -3 -7 -11 -7 -17 0 -6 5 -5 12 2 6 6 9 14 7 17 -3 3
-9 2 -12 -2z"/>
<path d="M8171 4664 c0 -11 3 -14 6 -6 3 7 2 16 -1 19 -3 4 -6 -2 -5 -13z"/>
<path d="M1836 4622 c-3 -9 -4 -35 -2 -57 5 -57 87 -398 99 -410 6 -7 7 -2 3
15 -14 51 -65 317 -71 373 -4 31 -11 60 -16 62 -4 3 -6 12 -2 20 3 8 3 15 0
15 -3 0 -8 -8 -11 -18z"/>
<path d="M7951 4614 c0 -11 3 -14 6 -6 3 7 2 16 -1 19 -3 4 -6 -2 -5 -13z"/>
<path d="M2352 4585 c0 -16 2 -22 5 -12 2 9 2 23 0 30 -3 6 -5 -1 -5 -18z"/>
<path d="M8156 4555 c-3 -8 -1 -15 4 -15 6 0 10 7 10 15 0 8 -2 15 -4 15 -2 0
-6 -7 -10 -15z"/>
<path d="M2320 4485 c0 -5 5 -17 10 -25 5 -8 10 -10 10 -5 0 6 -5 17 -10 25
-5 8 -10 11 -10 5z"/>
<path d="M8124 4346 c-3 -8 -4 -23 -2 -33 3 -11 6 -6 9 15 6 34 2 42 -7 18z"/>
<path d="M2080 4276 c0 -8 4 -17 9 -20 5 -4 7 3 4 14 -6 23 -13 26 -13 6z"/>
<path d="M8112 4269 c-21 -40 -41 -131 -27 -119 7 6 16 29 19 52 4 23 12 45
17 49 6 3 9 14 7 24 -2 15 -5 15 -16 -6z"/>
<path d="M1944 4103 c3 -39 61 -172 90 -208 8 -11 -2 16 -23 60 -21 44 -44
104 -51 133 -14 61 -21 67 -16 15z"/>
<path d="M7997 4063 c-4 -3 -7 -13 -7 -22 1 -13 3 -13 11 2 11 19 8 33 -4 20z"/>
<path d="M2027 3820 c3 -11 9 -20 14 -20 5 0 9 -12 9 -27 0 -21 3 -24 12 -15
9 9 8 20 -5 47 -18 38 -39 48 -30 15z"/>
<path d="M2000 3771 c0 -6 4 -13 10 -16 6 -3 7 1 4 9 -7 18 -14 21 -14 7z"/>
<path d="M2101 3763 c7 -12 15 -20 18 -17 3 2 -3 12 -13 22 -17 16 -18 16 -5
-5z"/>
<path d="M2067 3712 c-6 -9 42 -66 50 -59 5 5 -34 67 -42 67 -2 0 -6 -3 -8 -8z"/>
<path d="M2090 3600 c11 -22 23 -40 25 -40 3 0 -4 18 -15 40 -11 22 -23 40
-25 40 -3 0 4 -18 15 -40z"/>
<path d="M2135 3620 c10 -11 20 -20 23 -20 3 0 -3 9 -13 20 -10 11 -20 20 -23
20 -3 0 3 -9 13 -20z"/>
<path d="M2290 3249 c0 -14 49 -69 54 -61 3 5 -8 22 -24 37 -17 16 -30 27 -30
24z"/>
<path d="M2366 3163 c-6 -14 -5 -15 5 -6 7 7 10 15 7 18 -3 3 -9 -2 -12 -12z"/>
<path d="M2460 3076 c0 -2 8 -10 18 -17 15 -13 16 -12 3 4 -13 16 -21 21 -21
13z"/>
<path d="M7402 2945 c-32 -18 -49 -35 -35 -35 7 0 25 11 40 25 31 27 30 29 -5
10z"/>
<path d="M7682 2658 c-7 -7 -12 -21 -12 -32 1 -18 3 -17 16 7 17 31 15 44 -4
25z"/>
<path d="M3080 2466 c0 -2 8 -10 18 -17 15 -13 16 -12 3 4 -13 16 -21 21 -21
13z"/>
<path d="M3255 2260 c3 -5 8 -10 11 -10 2 0 4 5 4 10 0 6 -5 10 -11 10 -5 0
-7 -4 -4 -10z"/>
<path d="M6669 2243 c-13 -16 -12 -17 4 -4 16 13 21 21 13 21 -2 0 -10 -8 -17
-17z"/>
<path d="M3307 2059 c15 -15 123 -52 131 -45 3 4 0 6 -7 6 -7 0 -11 6 -8 14 3
8 -1 17 -9 20 -8 3 -14 1 -14 -5 0 -6 -6 -6 -19 0 -10 6 -21 8 -23 5 -3 -2
-18 0 -34 6 -23 9 -26 9 -17 -1z"/>
<path d="M3592 2009 c5 -16 88 -66 139 -84 20 -7 72 -34 116 -59 92 -54 168
-70 196 -41 28 27 20 52 -25 83 -84 56 -164 76 -188 47 -18 -22 -43 -19 -75 9
-15 13 -48 28 -74 34 -25 6 -57 14 -70 18 -18 5 -23 4 -19 -7z"/>
<path d="M5720 1910 c-9 -6 -10 -10 -3 -10 6 0 15 5 18 10 8 12 4 12 -15 0z"/>
<path d="M5616 1891 c-4 -5 3 -7 14 -4 23 6 26 13 6 13 -8 0 -17 -4 -20 -9z"/>
<path d="M5600 1860 c0 -5 5 -10 10 -10 6 0 10 5 10 10 0 6 -4 10 -10 10 -5 0
-10 -4 -10 -10z"/>
<path d="M5486 1837 c3 -10 9 -15 12 -12 3 3 0 11 -7 18 -10 9 -11 8 -5 -6z"/>
<path d="M5405 1815 l-30 -15 35 6 c19 3 39 10 45 15 14 14 -16 10 -50 -6z"/>
<path d="M4953 1773 c15 -2 37 -2 50 0 12 2 0 4 -28 4 -27 0 -38 -2 -22 -4z"/>
<path d="M5185 1620 c3 -5 11 -10 16 -10 6 0 7 5 4 10 -3 6 -11 10 -16 10 -6
0 -7 -4 -4 -10z"/>
<path d="M4015 1530 c-4 -6 7 -10 25 -10 18 0 29 4 25 10 -3 6 -15 10 -25 10
-10 0 -22 -4 -25 -10z"/>
</g>
</svg>
